<?xml version="1.0" encoding="utf-8" ?>
<svg xmlns="http://www.w3.org/2000/svg" xmlns:xlink="http://www.w3.org/1999/xlink" width="1008" height="1008">
	<path fill="#169023" transform="scale(0.984375 0.984375)" d="M161.468 714.949C168.348 711.086 178.217 713.184 185.84 712.854C190.908 715.596 196.524 717.393 201.436 720.367C208.477 724.629 214.813 729.971 221.958 734.066C210.521 735.959 172.582 720.899 161.468 714.949Z"/>
	<path fill="#50B627" transform="scale(0.984375 0.984375)" d="M150.196 635.915C178.034 638.887 184.803 647.068 203.94 666.54C203.467 663.965 203.105 661.422 202.82 658.819C204.798 662.858 205.15 668.036 206.425 672.41C209.458 682.808 213.252 693.062 215.693 703.616C210.7 695.401 208.11 688.131 206.679 678.605C202.816 678.036 198.867 677.458 195.061 676.593C174.048 671.812 161.053 653.056 150.196 635.915Z"/>
	<path fill="#50B627" transform="scale(0.984375 0.984375)" d="M152.552 681.184Q153.423 681.046 154.297 680.924C171.099 678.527 184.963 680.302 198.324 691.381C204.151 696.213 209.564 701.554 215.621 706.111L216.102 705.375C217.403 706.872 217.588 708.809 218.368 710.563C220.094 714.165 221.947 717.736 223.027 721.595C221.957 720.738 220.705 720.067 219.537 719.347C216.634 718.37 214.152 716.393 211.637 714.68C208.099 714.833 204.515 715.047 200.975 714.892C179.571 713.958 165.894 695.579 152.552 681.184Z"/>
	<path fill="#0B6C19" transform="scale(0.984375 0.984375)" d="M214.253 714.432C215.715 713.246 217.028 711.884 218.368 710.563C220.094 714.165 221.947 717.736 223.027 721.595C221.957 720.738 220.705 720.067 219.537 719.347L214.253 714.432Z"/>
	<path fill="#50B627" transform="scale(0.984375 0.984375)" d="M175.634 570.325C185.425 582.034 195.462 598.82 198.052 614.064C198.822 618.6 198.494 637.973 199.78 640.054C199.976 639.881 200.231 639.756 200.367 639.533C200.744 638.916 200.597 634.476 200.713 633.339C200.974 630.768 201.691 628.638 202.87 626.347L203.156 625.805C204.235 634.967 204.798 644.428 206.541 653.474C209.573 641.021 215.217 631.204 223.996 621.8C224.061 636.418 222.165 648.827 215.59 662.04C213.979 665.278 212.178 668.881 209.93 671.718C208.812 668.902 207.825 666.113 207.094 663.169C205.756 657.777 204.196 643.846 200.306 640.419C199.015 642.545 199.425 644.705 199.594 647.055C194.274 631.633 182.476 631.983 175.394 616.317C168.73 601.573 170.069 585.142 175.634 570.325Z"/>
	<path fill="#50B627" transform="scale(0.984375 0.984375)" d="M344.005 105.302L344.025 265.586L343.711 313.222C343.667 318.006 344.106 322.825 343.969 327.597C342.635 330.871 343.125 335.488 343.163 338.974C329.017 331.405 316.213 320.851 305.095 309.354C307.728 299.38 309.302 289.063 311.35 278.95Q301.432 285.219 292.093 292.322C290.519 293.677 288.995 295.062 287.231 296.169C283.66 291.166 281.394 285.3 277.735 280.37C275.118 274.746 270.63 268.702 266.495 264.132L266.042 260.265C266.333 255.603 266.493 251.036 266.39 246.364C266.73 242.136 266.787 237.405 268.151 233.372Q276.156 231.261 284.254 229.536Q281.614 226.13 279.368 222.452Q277.121 218.775 275.296 214.871C273.508 211.008 270.795 204.665 272.697 200.53C273.39 199.022 274.469 198.016 276.025 197.465C281.962 195.359 289.85 199.79 295.13 202.32C292.36 197.053 284.807 185.323 286.293 179.286C286.597 178.053 287.09 177.139 288.271 176.557C292.992 174.234 312.12 181.152 318.081 182.928C314.002 174.212 310.373 165.301 306.23 156.596L309.669 153.254L309.274 152.516C307.503 149.132 304.945 143.756 306.484 139.954C306.987 138.71 308.051 137.945 309.286 137.525C316.277 135.152 326.841 141.892 332.99 144.985L333.076 142.95C333.674 130.214 333.915 114.488 344.005 105.302Z"/>
	<path fill="#0B6C19" transform="scale(0.984375 0.984375)" d="M266.042 260.265C273.267 267.324 286.697 283.817 292.093 292.322C290.519 293.677 288.995 295.062 287.231 296.169C283.66 291.166 281.394 285.3 277.735 280.37C275.118 274.746 270.63 268.702 266.495 264.132L266.042 260.265Z"/>
	<path fill="#169023" transform="scale(0.984375 0.984375)" d="M284.254 229.536C294.586 239.068 304.217 249.389 313.931 259.54C317.259 263.018 321.396 266.281 324.246 270.135C319.207 266.756 315.346 261.734 310.31 258.413C302.596 253.328 275.702 246.405 266.39 246.364C266.73 242.136 266.787 237.405 268.151 233.372Q276.156 231.261 284.254 229.536Z"/>
	<path fill="#0B6C19" transform="scale(0.984375 0.984375)" d="M213.622 167.507C223.026 187.247 232.385 214.316 233.459 236.292C233.801 243.295 233.042 250.196 231.52 257.028C241.938 242.43 257.435 231.91 270.468 219.787L268.151 233.372C266.787 237.405 266.73 242.136 266.39 246.364C266.493 251.036 266.333 255.603 266.042 260.265L266.495 264.132C270.63 268.702 275.118 274.746 277.735 280.37C281.394 285.3 283.66 291.166 287.231 296.169C282.824 299.44 278.216 302.808 274.115 306.448C269.374 310.327 264.249 314.101 259.854 318.35L245.119 376.843C242.886 385.785 241.444 396.181 237.867 404.624C224.465 397.378 205.159 394.131 190.05 392.194C187.787 391.904 185.437 391.311 183.16 391.307C176.93 386.186 170.886 380.996 164.958 375.524Q167.517 374.708 170.115 374.023Q172.712 373.338 175.341 372.786Q177.97 372.233 180.623 371.814Q183.276 371.394 185.948 371.11Q188.619 370.826 191.301 370.677Q193.983 370.528 196.669 370.515Q199.355 370.502 202.039 370.625Q204.722 370.748 207.396 371.006C199.675 367.225 192.264 363.272 185.846 357.458C173.424 346.205 159.274 315.682 150.591 299.792C166.48 300.123 181.902 301.909 196.555 308.393Q192.874 305.897 189.419 303.096C167.023 284.596 165.771 255.302 163.356 228.567C175.86 234.375 186.725 242.845 197.86 250.838C188.97 222.443 202.375 193.216 213.622 167.507Z"/>
	<path fill="#50B627" transform="scale(0.984375 0.984375)" d="M266.495 264.132C270.63 268.702 275.118 274.746 277.735 280.37C274.579 281.745 271.482 282.973 268.184 283.965C267.333 277.399 266.458 270.761 266.495 264.132Z"/>
	<path fill="#169023" transform="scale(0.984375 0.984375)" d="M277.735 280.37C281.394 285.3 283.66 291.166 287.231 296.169C282.824 299.44 278.216 302.808 274.115 306.448C271.406 299.038 269.794 291.668 268.184 283.965C271.482 282.973 274.579 281.745 277.735 280.37Z"/>
	<path fill="#443E25" transform="scale(0.984375 0.984375)" d="M161.468 714.949C172.582 720.899 210.521 735.959 221.958 734.066C223.961 734.801 227.82 736.764 229.837 736.125Q238.023 750.236 245.399 764.786C250.239 770.58 254.638 778.422 258.103 785.119Q266.383 796.345 274.858 807.425C279.693 812.641 284.038 818.142 288.298 823.827C294.964 831.502 302.271 838.578 308.969 846.242C313.855 849.862 318.668 854.513 322.892 858.894C331.016 867.622 344.347 876.556 354.531 882.954C358.49 885.834 362.462 888.903 366.637 891.456C387.889 904.455 412.141 908.375 435.916 913.821C437.46 914.647 439.229 915.421 440.554 916.562C428.388 917.566 415.872 917.539 403.655 917.781C352.318 918.796 314.976 913.466 270.132 887.436C223.048 860.104 184.504 813.535 169.779 760.781C167.251 751.722 165.582 742.385 164.298 733.078C163.502 727.314 163.145 721.041 161.61 715.44C161.565 715.276 161.516 715.113 161.468 714.949Z"/>
	<path fill="#50B627" transform="scale(0.984375 0.984375)" d="M244.036 841.308C260.859 837.752 277.422 836.415 294.239 840.986C298.847 842.239 303.456 845.346 308.059 846.108C308.361 846.158 308.666 846.197 308.969 846.242C313.855 849.862 318.668 854.513 322.892 858.894C320.647 860.506 317.214 860.954 314.503 861.198C286.113 863.751 266.218 859.965 244.036 841.308Z"/>
	<path fill="#50B627" transform="scale(0.984375 0.984375)" d="M207.12 798.014Q208.832 797.551 210.561 797.159Q212.291 796.767 214.035 796.446Q215.779 796.124 217.535 795.874Q219.29 795.624 221.055 795.446Q222.819 795.268 224.589 795.162Q226.359 795.056 228.132 795.022Q229.906 794.988 231.678 795.027Q233.451 795.065 235.221 795.176Q236.991 795.287 238.755 795.47Q240.519 795.653 242.274 795.908Q244.029 796.162 245.772 796.488Q247.515 796.814 249.244 797.211Q250.972 797.608 252.683 798.075Q254.393 798.542 256.084 799.079Q257.774 799.615 259.441 800.22Q261.108 800.825 262.749 801.498C266.627 803.132 270.73 807.082 274.858 807.425C279.693 812.641 284.038 818.142 288.298 823.827Q285.699 824.269 283.072 824.48C260.693 826.465 239.21 821.449 220.55 808.731C215.796 805.491 211.533 801.687 207.12 798.014Z"/>
	<path fill="#50B627" transform="scale(0.984375 0.984375)" d="M176.405 750.225C194.897 747.603 212.039 747.231 229.129 755.832C234.491 758.531 239.463 761.983 244.888 764.55L245.399 764.786C250.239 770.58 254.638 778.422 258.103 785.119C257.212 785.284 256.409 785.415 255.501 785.449C234.759 786.229 211.07 776.353 194.273 764.845C187.867 760.457 182.153 755.415 176.405 750.225Z"/>
	<path fill="#032920" transform="scale(0.984375 0.984375)" d="M554.545 147.781C566.793 149.191 578.711 151.864 590.676 154.785Q594.446 155.742 598.195 156.776Q601.945 157.809 605.673 158.918Q609.401 160.028 613.106 161.212Q616.811 162.396 620.491 163.655Q624.171 164.914 627.825 166.247Q631.479 167.581 635.105 168.987Q638.731 170.394 642.328 171.874Q645.925 173.354 649.491 174.906Q653.057 176.459 656.592 178.083Q660.126 179.707 663.626 181.402Q667.127 183.098 670.593 184.863Q674.058 186.629 677.487 188.465Q680.916 190.3 684.308 192.205Q687.699 194.109 691.051 196.082Q694.403 198.055 697.715 200.095Q701.026 202.135 704.296 204.242Q707.565 206.348 710.792 208.521Q714.018 210.693 717.2 212.93Q720.381 215.167 723.517 217.469Q726.653 219.77 729.741 222.134Q732.83 224.498 735.87 226.924Q738.91 229.35 741.901 231.837Q744.891 234.324 747.83 236.871Q750.77 239.418 753.657 242.024Q756.545 244.63 759.379 247.294Q762.213 249.958 764.993 252.679Q767.772 255.399 770.496 258.176Q773.22 260.952 775.887 263.783Q778.555 266.614 781.164 269.498Q783.774 272.382 786.324 275.319Q788.875 278.255 791.366 281.242Q793.856 284.23 796.286 287.267Q799.355 291.207 802.326 295.22Q805.298 299.234 808.17 303.319Q811.043 307.404 813.815 311.558Q816.586 315.713 819.256 319.933Q821.925 324.154 824.491 328.438Q827.056 332.723 829.516 337.069Q831.976 341.415 834.329 345.82Q836.682 350.225 838.927 354.686Q841.171 359.147 843.306 363.662Q845.441 368.176 847.465 372.742Q849.489 377.307 851.4 381.921Q853.312 386.534 855.11 391.193Q856.909 395.852 858.593 400.554Q860.276 405.255 861.845 409.996Q863.413 414.738 864.865 419.516Q866.318 424.294 867.652 429.106Q868.987 433.918 870.204 438.762Q871.421 443.605 872.519 448.477Q873.617 453.349 874.595 458.246Q875.574 463.143 876.432 468.062Q877.291 472.982 878.029 477.921Q878.767 482.86 879.385 487.816Q880.002 492.772 880.497 497.741Q880.993 502.71 881.367 507.69Q881.742 512.67 881.994 517.657Q882.246 522.645 882.376 527.637Q882.507 532.629 882.515 537.623Q882.523 542.617 882.409 547.61Q882.296 552.603 882.06 557.591Q881.824 562.579 881.466 567.56Q881.109 572.542 880.629 577.512Q880.15 582.483 879.549 587.441C868.526 683.309 821.238 774.404 745.253 834.703Q742.519 836.86 739.746 838.968Q736.973 841.075 734.163 843.132Q731.352 845.189 728.505 847.194Q725.658 849.2 722.775 851.154Q719.892 853.107 716.974 855.009Q714.056 856.91 711.104 858.758Q708.152 860.606 705.167 862.4Q702.182 864.194 699.165 865.934Q696.148 867.674 693.1 869.359Q690.052 871.044 686.974 872.673Q683.896 874.302 680.788 875.876Q677.681 877.449 674.546 878.966Q671.411 880.483 668.249 881.943Q665.087 883.402 661.899 884.805Q658.711 886.207 655.499 887.551Q652.286 888.896 649.049 890.181Q645.812 891.467 642.553 892.694Q639.294 893.921 636.013 895.089Q632.731 896.257 629.43 897.365Q626.128 898.473 622.807 899.522Q619.485 900.57 616.146 901.558Q612.806 902.545 609.449 903.473Q606.092 904.4 602.719 905.266Q599.346 906.132 595.957 906.937Q592.569 907.742 589.166 908.486Q585.764 909.229 582.349 909.911Q578.933 910.593 575.506 911.212Q572.079 911.832 568.641 912.39Q565.203 912.947 561.756 913.442Q558.309 913.938 554.853 914.37Q551.397 914.803 547.934 915.173Q544.471 915.543 541.002 915.85C518.216 917.964 495.236 917.875 472.377 917.428C475.099 915.289 484.868 913.227 488.737 911.75C503.757 906.016 519.087 898.972 531.692 888.87C564.495 887.352 592.336 882.71 619.717 862.583C624.398 859.141 628.715 855.092 633.07 851.251C645.354 850.21 671.049 842.045 682.997 837.713C691.94 834.471 711.219 827.462 715.095 818.237C715.711 816.771 715.722 815.27 715.021 813.839C713.108 809.926 708.117 807.714 704.241 806.308C718.373 804.223 734.747 802.554 747.618 796.028C750.788 794.421 754.592 791.979 755.641 788.357C756.296 786.095 755.525 783.587 754.377 781.613C751.763 777.118 746.119 775.491 741.407 774.249C761.346 769.01 780.94 760.81 792.891 743.219C787.341 742.404 781.752 741.794 776.184 741.109C787.8 735.552 798.951 727.332 807.541 717.746C811.185 713.681 822.479 698.767 821.376 693.308C821.095 691.921 820.736 691.761 819.655 690.993C814.653 690.468 808.9 692.543 804.054 693.777C807.007 690.832 809.937 687.817 812.671 684.667C817.946 678.587 834.046 656.628 832.631 648.285C832.413 647.004 831.919 645.953 830.792 645.232C827.505 643.131 820.49 645.687 816.894 646.549C826.68 638.047 846.616 615.459 848.224 602.826C848.433 601.183 848.164 600.105 847.11 598.791C843.304 596.664 836.183 598.307 832.034 599.059Q834.58 595.448 836.964 591.727C844.062 580.631 850.946 563.625 847.544 550.189C847.171 548.716 846.756 547.906 845.468 547.103C840.015 546.82 833.58 550.346 828.747 552.651C832.713 544.576 837.091 536.881 840.173 528.381C842.959 520.698 846.59 504.456 842.635 496.783C842.146 495.835 841.812 495.489 840.738 495.286C835.824 494.358 825.647 501.981 821.494 504.59C828.431 489.355 837.748 470.458 832.799 453.377C832.241 451.45 831.758 450.196 829.963 449.215C822.465 449.141 814.134 457.295 808.626 461.763C810.704 457.514 812.491 452.993 814.082 448.538C818.901 435.045 821.688 422.971 815.319 409.534C807.129 412.829 800.855 417.201 794.065 422.732C796.847 415.877 799.456 408.95 800.533 401.592C802.098 390.905 800.712 382.301 794.222 373.525C785.311 377.909 780.029 384.623 774.801 392.838C777.747 378.978 776.479 361.994 771.98 348.663C772.337 341.86 772.041 336.105 769.466 329.744C764.653 317.857 756.619 307.141 749.321 296.682Q745.929 291.785 742.393 286.991Q738.857 282.197 735.18 277.51Q731.502 272.824 727.687 268.249Q723.871 263.674 719.921 259.216Q715.97 254.757 711.889 250.418Q707.807 246.079 703.598 241.863Q699.389 237.648 695.056 233.56Q690.723 229.472 686.27 225.515Q681.817 221.558 677.248 217.735Q672.68 213.913 667.999 210.228Q663.318 206.544 658.529 203Q653.74 199.457 648.848 196.058Q643.956 192.659 638.964 189.408Q633.973 186.156 628.887 183.055Q623.801 179.954 618.624 177.006Q613.448 174.057 608.186 171.265Q590.732 162.157 572.26 155.345C567.319 153.493 562.277 152.282 557.408 150.144C555.89 149.478 555.17 149.363 554.545 147.781Z"/>
	<path fill="#063623" transform="scale(0.984375 0.984375)" d="M502.019 143.127C515.409 143.501 542.365 144.095 554.545 147.781C555.17 149.363 555.89 149.478 557.408 150.144C562.277 152.282 567.319 153.493 572.26 155.345Q590.732 162.157 608.186 171.265Q613.448 174.057 618.624 177.006Q623.801 179.954 628.887 183.055Q633.973 186.156 638.964 189.408Q643.956 192.659 648.848 196.058Q653.74 199.457 658.529 203Q663.318 206.544 667.999 210.228Q672.68 213.913 677.249 217.735Q681.817 221.558 686.27 225.515Q690.723 229.472 695.056 233.56Q699.389 237.648 703.598 241.863Q707.807 246.079 711.889 250.418Q715.97 254.757 719.921 259.216Q723.871 263.674 727.687 268.249Q731.502 272.824 735.18 277.51Q738.857 282.197 742.393 286.991Q745.929 291.785 749.321 296.682C756.619 307.141 764.653 317.857 769.466 329.744C772.041 336.105 772.337 341.86 771.98 348.663C769.782 343.832 765.912 340.006 763.021 335.622C761.976 335.119 761.185 334.71 760.019 335.132C755.649 336.715 751.467 345.806 750.008 349.941C744.979 364.194 747.933 377.936 749.297 392.437C743.903 384.682 738.291 378.271 730.29 373.172C724.001 382.56 722.198 391.171 724.336 402.275C725.746 409.599 728.605 416.907 732.088 423.481C728.175 419.894 715.569 408.161 710.394 408.34C709.222 408.381 708.851 408.833 708.171 409.731C703.393 416.041 703.587 427.06 704.871 434.441C706.349 442.937 709.557 451.015 712.664 459.021C706.529 452.924 700.247 447.068 692.673 442.784C685.594 455.681 686.131 467.257 690.131 481.178C691.281 485.18 692.65 489.13 693.976 493.077C689.358 489.821 684.749 487.279 679.49 485.213C678.03 487.763 676.521 490.282 675.367 492.99C666.024 447.43 646.11 407.305 613.074 374.251C584.036 345.198 544.842 323.482 503.539 319.451C490.269 318.155 477.114 318.644 463.82 318.8L422.431 318.903C421.404 312.398 422.133 305.377 422.276 298.801C422.387 293.72 422.152 288.674 421.899 283.601C428.182 284.157 435.313 284.796 441.05 287.576C440.987 285.758 440.818 283.925 441.25 282.142C448.144 241.156 456.577 196.02 486.915 165.103C491.569 160.361 497.352 156.286 502.662 152.292C501.603 149.386 501.963 146.174 502.019 143.127Z"/>
	<path fill="#50B627" transform="scale(0.984375 0.984375)" d="M502.662 152.292C505.933 150.608 508.722 147.994 511.944 146.19C513.334 145.412 514.588 144.851 516.184 145.275C517.187 146.371 517.301 147.352 517.551 148.755C525.908 161.218 523.271 185.351 520.445 199.491C514.224 230.617 499.108 254.407 472.527 271.883C467.424 275.238 446.261 287.895 441.05 287.576C440.987 285.758 440.818 283.925 441.25 282.142C448.144 241.156 456.577 196.02 486.915 165.103C491.569 160.361 497.352 156.286 502.662 152.292Z"/>
	<path fill="#0B6C19" transform="scale(0.984375 0.984375)" d="M517.551 148.755C525.908 161.218 523.271 185.351 520.445 199.491C514.224 230.617 499.108 254.407 472.527 271.883C467.424 275.238 446.261 287.895 441.05 287.576C440.987 285.758 440.818 283.925 441.25 282.142L441.834 282.826C443.851 280.581 444.697 275.498 445.697 272.57C448.071 265.613 451.043 258.805 454.08 252.115C464.061 230.128 477.972 210.108 493.001 191.307C497.253 185.988 501.565 180.259 506.53 175.58C506.605 176.906 492.378 195.224 490.659 197.707C481.252 211.295 471.534 225.358 463.641 239.887C455.952 254.042 449.838 268.879 442.812 283.336C456.002 276.864 468.053 266.936 478.462 256.589C501.948 233.244 516.909 202.927 518.552 169.638C518.895 162.674 517.453 156.077 517.539 149.238C517.541 149.077 517.547 148.916 517.551 148.755Z"/>
	<path fill="#169023" transform="scale(0.984375 0.984375)" d="M749.297 392.437C747.933 377.936 744.979 364.194 750.008 349.941C751.467 345.806 755.649 336.715 760.019 335.132C761.185 334.71 761.976 335.119 763.021 335.622C765.912 340.006 769.782 343.832 771.98 348.663C776.479 361.994 777.747 378.978 774.801 392.838C780.029 384.623 785.311 377.909 794.222 373.525C800.712 382.301 802.098 390.905 800.533 401.592C799.456 408.95 796.847 415.877 794.065 422.732C800.855 417.201 807.129 412.829 815.319 409.534C821.688 422.971 818.901 435.045 814.082 448.538C812.491 452.993 810.704 457.514 808.626 461.763C814.134 457.295 822.465 449.141 829.963 449.215C831.758 450.196 832.241 451.45 832.799 453.377C837.748 470.458 828.431 489.355 821.494 504.59C825.647 501.981 835.824 494.358 840.738 495.286C841.812 495.489 842.146 495.835 842.635 496.783C846.59 504.456 842.959 520.698 840.173 528.381C837.091 536.881 832.713 544.576 828.747 552.651C833.58 550.346 840.015 546.82 845.468 547.103C846.756 547.906 847.171 548.716 847.544 550.189C850.946 563.625 844.062 580.631 836.964 591.727Q834.58 595.448 832.034 599.059C836.183 598.307 843.304 596.664 847.11 598.791C848.164 600.105 848.433 601.183 848.224 602.826C846.616 615.459 826.68 638.047 816.894 646.549C820.49 645.687 827.505 643.131 830.792 645.232C831.919 645.953 832.413 647.004 832.631 648.285C834.046 656.628 817.946 678.587 812.671 684.667C809.937 687.817 807.007 690.832 804.054 693.777C808.9 692.543 814.653 690.468 819.655 690.993C820.736 691.761 821.095 691.921 821.376 693.308C822.479 698.767 811.185 713.681 807.541 717.746C798.951 727.332 787.8 735.552 776.184 741.109C781.752 741.794 787.341 742.404 792.891 743.219C780.94 760.81 761.346 769.01 741.407 774.249C746.119 775.491 751.763 777.118 754.377 781.613C755.525 783.587 756.296 786.095 755.641 788.357C754.592 791.979 750.788 794.421 747.618 796.028C734.747 802.554 718.373 804.223 704.241 806.308C708.117 807.714 713.108 809.926 715.021 813.839C715.722 815.27 715.711 816.771 715.095 818.237C711.219 827.462 691.94 834.471 682.997 837.713C671.049 842.045 645.354 850.21 633.07 851.251C662.242 818.129 671.221 794.398 676.523 751.221C675.794 739.859 676.027 728.404 675.993 717.022C664.096 717.036 652.433 715.914 640.595 715.635C622.652 715.212 605.558 717.057 587.923 720.136C593.615 715.332 599.975 711.341 605.85 706.762Q610.4 703.182 614.703 699.309Q619.006 695.436 623.042 691.286Q627.079 687.136 630.831 682.727Q634.584 678.319 638.036 673.671C667.969 633.343 680.977 581.331 679.409 531.581C679.001 518.631 677.234 505.793 675.367 492.99C676.521 490.282 678.03 487.763 679.49 485.213C684.749 487.279 689.358 489.821 693.976 493.077C692.65 489.13 691.281 485.18 690.131 481.178C686.131 467.257 685.594 455.681 692.673 442.784C700.247 447.068 706.529 452.924 712.664 459.021C709.557 451.015 706.349 442.937 704.871 434.441C703.587 427.06 703.393 416.041 708.171 409.731C708.851 408.833 709.222 408.381 710.394 408.34C715.569 408.161 728.175 419.894 732.088 423.481C728.605 416.907 725.746 409.599 724.336 402.275C722.198 391.171 724.001 382.56 730.29 373.172C738.291 378.271 743.903 384.682 749.297 392.437Z"/>
	<path fill="#0B6C19" transform="scale(0.984375 0.984375)" d="M748.528 679.943C749.011 680.179 749.232 680.572 749.562 680.985C751 686.915 749.967 693.777 746.971 699.052C743.436 705.275 738.301 708.346 731.629 710.237C731.054 710.011 730.837 709.712 730.42 709.27C729.254 705.644 729.78 700.75 730.798 697.102C733.343 687.976 740.895 684.162 748.528 679.943Z"/>
	<path fill="#50B627" transform="scale(0.984375 0.984375)" d="M749.297 392.437C747.933 377.936 744.979 364.194 750.008 349.941C751.467 345.806 755.649 336.715 760.019 335.132C761.185 334.71 761.976 335.119 763.021 335.622L762.979 448.807C762.903 541.406 760.957 613.092 714.792 696.556Q708.508 707.918 701.297 718.714Q694.086 729.511 685.998 739.667C682.983 743.512 679.922 747.719 676.523 751.221C675.794 739.859 676.027 728.404 675.993 717.022C664.096 717.036 652.433 715.914 640.595 715.635C622.652 715.212 605.558 717.057 587.923 720.136C593.615 715.332 599.975 711.341 605.85 706.762Q610.4 703.182 614.703 699.309Q619.006 695.436 623.042 691.286Q627.079 687.136 630.831 682.727Q634.584 678.319 638.036 673.671C667.969 633.343 680.977 581.331 679.409 531.581C679.001 518.631 677.234 505.793 675.367 492.99C676.521 490.282 678.03 487.763 679.49 485.213C684.749 487.279 689.358 489.821 693.976 493.077C692.65 489.13 691.281 485.18 690.131 481.178C686.131 467.257 685.594 455.681 692.673 442.784C700.247 447.068 706.529 452.924 712.664 459.021C709.557 451.015 706.349 442.937 704.871 434.441C703.587 427.06 703.393 416.041 708.171 409.731C708.851 408.833 709.222 408.381 710.394 408.34C715.569 408.161 728.175 419.894 732.088 423.481C728.605 416.907 725.746 409.599 724.336 402.275C722.198 391.171 724.001 382.56 730.29 373.172C738.291 378.271 743.903 384.682 749.297 392.437Z"/>
	<path fill="#169023" transform="scale(0.984375 0.984375)" d="M657.422 690.095C658.215 690.049 659.499 689.965 660.237 690.23C661.309 690.615 661.719 691.142 662.101 692.171C662.961 694.492 661.738 697.73 660.841 699.862C657.261 708.368 651.244 711.246 643.213 714.403C642.275 714.873 641.71 714.917 640.683 715.023C639.641 714.312 639.308 713.855 639.078 712.579C638.32 708.373 640.015 702.919 642.27 699.404C645.678 694.091 651.467 691.408 657.422 690.095Z"/>
	<path fill="#169023" transform="scale(0.984375 0.984375)" d="M714.684 608.181C721.459 610.855 727.561 613.91 731.211 620.615C734.111 625.942 734.507 632.628 732.709 638.385C727.023 636.462 721.791 634.109 718 629.203C713.043 622.79 713.739 615.704 714.684 608.181Z"/>
	<path fill="#169023" transform="scale(0.984375 0.984375)" d="M739.486 500.683C745.476 502.252 751.141 506.056 754.614 511.205C758.924 517.596 758.42 523.692 757.034 530.827C756.444 530.864 755.867 530.852 755.28 530.767C750.799 530.12 746.049 526.337 743.406 522.883C738.195 516.076 738.313 508.711 739.486 500.683Z"/>
	<path fill="#443E25" transform="scale(0.984375 0.984375)" d="M344.005 105.302C346.49 103.875 348.333 103.492 351.151 104.235C355.131 105.284 357.796 109.616 359.631 113.047C364.463 122.077 364.523 132.519 364.545 142.503C369.067 140.93 381.134 134.922 385.598 137.596C386.932 138.396 387.291 139.942 387.48 141.376C387.55 141.913 387.588 142.453 387.633 142.992C402.214 143.417 416.87 143.094 431.461 143.101L502.019 143.127C501.963 146.174 501.603 149.386 502.662 152.292C497.352 156.286 491.569 160.361 486.915 165.103C456.577 196.02 448.144 241.156 441.25 282.142C440.818 283.925 440.987 285.758 441.05 287.576C435.313 284.796 428.182 284.157 421.899 283.601C422.152 288.674 422.387 293.72 422.276 298.801C422.133 305.377 421.404 312.398 422.431 318.903L463.82 318.8C477.114 318.644 490.269 318.155 503.539 319.451C544.842 323.482 584.036 345.198 613.074 374.251C646.11 407.305 666.024 447.43 675.367 492.99C677.234 505.793 679.001 518.631 679.409 531.581C680.977 581.331 667.969 633.343 638.036 673.671Q634.584 678.319 630.831 682.727Q627.079 687.136 623.042 691.286Q619.006 695.436 614.703 699.309Q610.4 703.182 605.85 706.762C599.975 711.341 593.615 715.332 587.923 720.136C605.558 717.057 622.652 715.212 640.595 715.635C652.433 715.914 664.096 717.036 675.993 717.022C676.027 728.404 675.794 739.859 676.523 751.221C671.221 794.398 662.242 818.129 633.07 851.251C628.715 855.092 624.398 859.141 619.717 862.583C592.336 882.71 564.495 887.352 531.692 888.87C519.087 898.972 503.757 906.016 488.737 911.75C484.868 913.227 475.099 915.289 472.377 917.428C463.693 917.864 454.833 917.122 446.152 916.682L440.554 916.562C439.229 915.421 437.46 914.647 435.916 913.821C412.141 908.375 387.889 904.455 366.637 891.456C362.462 888.903 358.49 885.834 354.531 882.954C344.347 876.556 331.016 867.622 322.892 858.894C318.668 854.513 313.855 849.862 308.969 846.242C302.271 838.578 294.964 831.502 288.298 823.827C284.038 818.142 279.693 812.641 274.858 807.425Q266.383 796.345 258.103 785.119C254.638 778.422 250.239 770.58 245.399 764.786Q238.023 750.236 229.837 736.125C227.851 731.136 225.437 726.388 223.027 721.595C221.947 717.736 220.094 714.165 218.368 710.563C217.588 708.809 217.403 706.872 216.102 705.375L215.693 703.616C213.252 693.062 209.458 682.808 206.425 672.41C205.15 668.036 204.798 662.858 202.82 658.819C201.352 655.157 200.603 650.888 199.594 647.055C199.425 644.705 199.015 642.545 200.306 640.419C204.196 643.846 205.756 657.777 207.094 663.169C207.825 666.113 208.812 668.902 209.93 671.718C212.178 668.881 213.979 665.278 215.59 662.04C222.165 648.827 224.061 636.418 223.996 621.8C215.217 631.204 209.573 641.021 206.541 653.474C204.798 644.428 204.235 634.967 203.156 625.805C199.687 609.962 200.412 583.59 199.981 566.669C193.984 562.909 174.779 539.362 169.722 532.26C150.089 504.693 140.207 469.688 140.564 435.907C140.717 421.434 142.771 407.291 145.18 393.053C157.736 391.031 170.508 392.489 183.16 391.307C185.437 391.311 187.787 391.904 190.05 392.194C205.159 394.131 224.465 397.378 237.867 404.624C241.444 396.181 242.886 385.785 245.119 376.843L259.854 318.35C264.249 314.101 269.374 310.327 274.115 306.448C278.216 302.808 282.824 299.44 287.231 296.169C288.995 295.062 290.519 293.677 292.093 292.322Q301.432 285.219 311.35 278.95C309.302 289.063 307.728 299.38 305.095 309.354C316.213 320.851 329.017 331.405 343.163 338.974C343.125 335.488 342.635 330.871 343.969 327.597C344.106 322.825 343.667 318.006 343.711 313.222L344.025 265.586L344.005 105.302ZM422.431 318.903Q422.702 460.93 421.311 602.95L420.509 699.018C420.349 719.569 419.442 740.591 421.057 761.074C426.544 753.738 432.202 747.402 441.914 746.182C447.301 745.504 452.927 746.227 457.297 749.662C464.53 755.348 466.219 765.223 468.042 773.677C473.904 763.446 479.094 752.226 491.471 748.848C497.997 747.066 505.281 747.556 511.188 751.016C515.585 753.592 520.111 758.763 521.23 763.862C521.269 764.04 521.281 764.223 521.307 764.403C526.356 757.422 530.543 752.555 538.511 748.855C545.548 745.564 551.253 739.243 557.806 735.025C567.291 728.919 577.685 724.753 587.923 720.136C593.615 715.332 599.975 711.341 605.85 706.762Q610.4 703.182 614.703 699.309Q619.006 695.436 623.042 691.286Q627.079 687.136 630.831 682.727Q634.584 678.319 638.036 673.671C667.969 633.343 680.977 581.331 679.409 531.581C679.001 518.631 677.234 505.793 675.367 492.99C666.024 447.43 646.11 407.305 613.074 374.251C584.036 345.198 544.842 323.482 503.539 319.451C490.269 318.155 477.114 318.644 463.82 318.8L422.431 318.903Z"/>
	<path fill="#D8D41C" transform="scale(0.984375 0.984375)" d="M361.33 432.35Q365.24 428.585 369.293 424.976C367.83 430.243 363.48 434.13 361.172 438.993C354.37 447.811 348.137 457.34 344.136 467.786C341.455 471.866 339.912 476.703 338.29 481.27C333.701 490.753 330.36 501.302 328.372 511.64C327.075 516.182 326.556 520.804 326.239 525.504L323.732 535.531C320.099 530.091 321.537 520.754 322.534 514.596C323.42 511.548 324.172 508.452 324.977 505.382C326.412 498.749 328.816 492.12 330.83 485.634C332.194 481.323 334.485 477.376 335.843 473.048C341.57 462.93 346.755 452.743 352.928 442.839C355.897 439.441 358.816 436.111 361.33 432.35Z"/>
	<path fill="#50B627" transform="scale(0.984375 0.984375)" d="M297.06 449.046C296.973 446.6 296.712 444.481 298.469 442.592C300.115 442.533 300.998 442.771 302.257 443.88C310.412 451.054 320.383 476.507 322.306 487.744C323.111 492.453 322.722 501.531 324.977 505.382C324.172 508.452 323.42 511.548 322.534 514.596C317.998 508.222 315.486 489.052 312.02 479.719C308.012 468.928 302.398 459.191 297.06 449.046Z"/>
	<path fill="#50B627" transform="scale(0.984375 0.984375)" d="M344.136 467.786C354.133 460.602 369.308 449.955 382.519 452.337C383.468 452.508 384.062 452.832 384.796 453.468C385.299 454.993 385.347 455.856 384.577 457.31C378.359 469.056 350.088 475.412 338.29 481.27C339.912 476.703 341.455 471.866 344.136 467.786Z"/>
	<path fill="#50B627" transform="scale(0.984375 0.984375)" d="M328.372 511.64C335.647 504.141 353.374 481.497 364.533 481.685C365.908 481.708 366.381 482.059 367.289 483.021C367.854 485.994 366.183 488.525 364.559 490.893C357.113 501.745 346.688 510.443 336.181 518.218C333.332 520.327 328.494 522.928 326.239 525.504C326.556 520.804 327.075 516.182 328.372 511.64Z"/>
	<path fill="#50B627" transform="scale(0.984375 0.984375)" d="M369.293 424.976C377.846 414.205 392.426 407.167 405.98 405.767C408.216 405.536 411.33 405.272 413.154 406.93C414.153 407.838 414.249 408.525 414.424 409.762C412.529 415.962 400.279 422.79 394.815 425.713C387.626 429.56 368.672 437.48 361.172 438.993C363.48 434.13 367.83 430.243 369.293 424.976Z"/>
	<path fill="#50B627" transform="scale(0.984375 0.984375)" d="M352.928 442.839C350.009 426.732 350.03 409.63 356.344 394.294C358.075 390.088 360.718 383.065 365.162 381.194C366.361 381.336 366.809 381.328 367.551 382.433C368.946 384.509 369.182 388.154 369.389 390.616C370.702 406.301 365.546 417.853 361.33 432.35C358.816 436.111 355.897 439.441 352.928 442.839Z"/>
	<path fill="#50B627" transform="scale(0.984375 0.984375)" d="M330.83 485.634C328.015 463.267 319.145 434.081 326.77 412.115C327.472 410.092 328.134 408.592 330.119 407.606C331.468 407.719 331.751 407.775 332.753 408.81C334.463 410.574 335.572 414.727 336.296 417.062C340.208 429.679 339.842 443.355 337.998 456.307C337.238 461.64 336.037 467.06 335.856 472.446C335.85 472.646 335.848 472.847 335.843 473.048C334.485 477.376 332.194 481.323 330.83 485.634Z"/>
	<path fill="#50B627" transform="scale(0.984375 0.984375)" d="M326.701 786.58C338.965 812.34 339.289 834.322 332.746 861.783C329.6 859.077 326.559 856.362 323.672 853.381C323.666 853.197 323.663 853.013 323.653 852.829C323.367 847.366 320.724 842.325 319.567 837.027C315.91 820.277 318.783 801.698 326.701 786.58Z"/>
	<path fill="#D8D41C" transform="scale(0.984375 0.984375)" d="M199.594 647.055C199.425 644.705 199.015 642.545 200.306 640.419C204.196 643.846 205.756 657.777 207.094 663.169C207.825 666.113 208.812 668.902 209.93 671.718C214.133 685.93 217.958 701.137 225.157 714.167C227.468 722.421 231.586 732.379 236.453 739.452Q243.773 753.222 251.818 766.581C254.528 772.844 258.608 779.85 263.467 784.692C270.99 794.781 278.742 804.6 286.542 814.47C289.027 817.751 291.576 820.918 294.285 824.017C303.639 834.487 313.632 843.637 323.672 853.381C326.559 856.362 329.6 859.077 332.746 861.783C339.025 866.615 346.271 873.094 353.043 877.001C353.888 879.055 354.949 880.735 354.531 882.954C344.347 876.556 331.016 867.622 322.892 858.894C318.668 854.513 313.855 849.862 308.969 846.242C302.271 838.578 294.964 831.502 288.298 823.827C284.038 818.142 279.693 812.641 274.858 807.425Q266.383 796.345 258.103 785.119C254.638 778.422 250.239 770.58 245.399 764.786Q238.023 750.236 229.837 736.125C227.851 731.136 225.437 726.388 223.027 721.595C221.947 717.736 220.094 714.165 218.368 710.563C217.588 708.809 217.403 706.872 216.102 705.375L215.693 703.616C213.252 693.062 209.458 682.808 206.425 672.41C205.15 668.036 204.798 662.858 202.82 658.819C201.352 655.157 200.603 650.888 199.594 647.055Z"/>
	<path fill="#50B627" transform="scale(0.984375 0.984375)" d="M286.542 814.47C285.873 806.456 284.779 798.417 284.746 790.368C284.675 772.999 289.969 754.388 300.75 740.592Q301.186 741.693 301.595 742.804Q302.003 743.915 302.384 745.036Q302.764 746.158 303.117 747.288Q303.469 748.419 303.793 749.557Q304.117 750.696 304.412 751.843Q304.708 752.989 304.974 754.143Q305.241 755.297 305.478 756.457Q305.716 757.617 305.924 758.782Q306.133 759.948 306.312 761.118Q306.491 762.289 306.641 763.463Q306.791 764.638 306.911 765.815Q307.031 766.993 307.122 768.174Q307.213 769.354 307.274 770.537Q307.335 771.719 307.367 772.903Q307.398 774.087 307.4 775.271Q307.402 776.455 307.375 777.638Q307.347 778.822 307.29 780.005Q307.232 781.187 307.145 782.368Q307.058 783.549 306.942 784.727Q306.825 785.906 306.679 787.081Q306.533 788.256 306.358 789.427Q306.183 790.598 305.978 791.764Q305.773 792.93 305.54 794.091Q305.306 795.251 305.043 796.406Q304.78 797.56 304.489 798.708Q304.197 799.856 303.877 800.995Q303.557 802.135 303.208 803.267Q302.859 804.398 302.482 805.521Q302.106 806.643 301.701 807.756Q301.296 808.869 300.863 809.971Q300.43 811.073 299.97 812.164Q299.51 813.255 299.023 814.334Q296.836 819.265 294.285 824.017C291.576 820.918 289.027 817.751 286.542 814.47Z"/>
	<path fill="#50B627" transform="scale(0.984375 0.984375)" d="M244.66 652.807C251.823 677.09 252.872 696.098 244.2 720.35C241.898 726.789 238.581 733.011 236.453 739.452C231.586 732.379 227.468 722.421 225.157 714.167L225.211 713.66C225.716 708.622 225.565 703.55 226.079 698.497Q226.228 696.941 226.433 695.391Q226.638 693.841 226.9 692.299Q227.161 690.758 227.479 689.227Q227.796 687.696 228.169 686.177Q228.542 684.659 228.969 683.155Q229.397 681.651 229.879 680.164Q230.361 678.677 230.897 677.208Q231.433 675.739 232.022 674.291Q232.611 672.842 233.253 671.417Q233.894 669.991 234.587 668.589Q235.279 667.187 236.022 665.812Q236.766 664.436 237.558 663.088Q238.351 661.741 239.192 660.423Q240.034 659.105 240.922 657.819Q241.811 656.532 242.746 655.279Q243.68 654.026 244.66 652.807Z"/>
	<path fill="#50B627" transform="scale(0.984375 0.984375)" d="M251.818 766.581C253.947 762.344 251.22 753.136 251.133 748.246Q251.111 746.526 251.153 744.807Q251.196 743.087 251.303 741.371Q251.411 739.654 251.582 737.943Q251.754 736.231 251.991 734.528Q252.227 732.824 252.527 731.13Q252.827 729.437 253.191 727.756Q253.554 726.075 253.981 724.409Q254.408 722.742 254.897 721.093Q255.386 719.445 255.937 717.815Q256.488 716.186 257.1 714.578Q257.712 712.971 258.384 711.388Q259.056 709.804 259.787 708.248Q260.518 706.691 261.307 705.163Q262.096 703.634 262.943 702.137Q263.789 700.64 264.691 699.175Q265.593 697.711 266.549 696.281C276.835 724.523 278.172 753.778 265.154 781.52C264.642 782.612 264.11 783.671 263.467 784.692C258.608 779.85 254.528 772.844 251.818 766.581Z"/>
	<path fill="#063623" transform="scale(0.984375 0.984375)" d="M292.093 292.322Q301.432 285.219 311.35 278.95C309.302 289.063 307.728 299.38 305.095 309.354C303.679 314.528 302.466 319.816 300.714 324.885C294.48 342.908 284.478 359.833 273.825 375.551Q287.145 369.058 300.889 363.518C309.528 360.031 318.49 356.855 326.881 352.825Q319.42 370.65 310.987 388.036C306.741 396.704 302.086 405.167 297.876 413.852C294.671 420.465 290.897 431.96 286.256 437.147C272.552 423.065 256.398 411.512 237.867 404.624C241.444 396.181 242.886 385.785 245.119 376.843L259.854 318.35C264.249 314.101 269.374 310.327 274.115 306.448C278.216 302.808 282.824 299.44 287.231 296.169C288.995 295.062 290.519 293.677 292.093 292.322Z"/>
	<path fill="#50B627" transform="scale(0.984375 0.984375)" d="M356.341 590.718C375.965 600.077 391.376 618.511 398.644 638.765C404.929 656.278 404.466 678.166 396.266 694.98C388.633 710.631 374.149 723.828 358.282 730.828C359.144 736.643 359.982 758.855 357.671 763.553C357.122 764.669 356.69 765.052 355.544 765.454C355.015 765.121 354.925 765.111 354.466 764.565C350.771 760.167 353.204 736.363 353.605 730.407C345.835 726.363 338.187 722.506 331.43 716.844C318.298 705.838 311.145 690.721 309.77 673.78C307.882 650.505 316.528 627.752 331.458 610.137C332.344 609.484 333.131 608.433 333.889 607.622C334.992 606.464 336.027 605.249 337.071 604.039C343.285 599.103 349.46 594.705 356.341 590.718Z"/>
	<path fill="#169023" transform="scale(0.984375 0.984375)" d="M356.254 695.851C348.029 690.917 339.819 686.084 331.364 681.547L332.023 681.654L330.884 681.2L331.282 680.741C338.252 682.564 351.429 693.249 356.714 693.804C358.329 693.974 360.049 692.945 361.473 692.274L362.076 692.476C361.61 693.646 360.117 694.026 358.979 694.528C358.36 694.802 357.722 695.027 357.087 695.259C357.195 704.514 356.347 722.771 358.282 730.828C359.144 736.643 359.982 758.855 357.671 763.553C357.122 764.669 356.69 765.052 355.544 765.454C355.015 765.121 354.925 765.111 354.466 764.565C350.771 760.167 353.204 736.363 353.605 730.407L355.647 730.137C357.092 727.424 356.268 700.468 356.254 695.851Z"/>
	<path fill="#8EE058" transform="scale(0.984375 0.984375)" d="M344.005 105.302C346.49 103.875 348.333 103.492 351.151 104.235C355.131 105.284 357.796 109.616 359.631 113.047C364.463 122.077 364.523 132.519 364.545 142.503C369.067 140.93 381.134 134.922 385.598 137.596C386.932 138.396 387.291 139.942 387.48 141.376C387.55 141.913 387.588 142.453 387.633 142.992C381.876 150.026 376.785 157.752 371.856 165.385C380.046 162.088 398.401 152.745 406.571 155.944C407.81 156.429 408.841 157.295 409.385 158.532C410.926 162.039 408.836 167.068 407.227 170.245C403.358 177.889 397.261 184.814 391.993 191.544C386.666 198.348 381.441 205.302 375.703 211.767C383.236 209.309 411.65 198.432 418.215 202.092C419.847 203.002 420.783 204.94 421.099 206.711C422.031 211.939 416.857 217.441 413.92 221.287C407.195 230.093 399.684 238.265 392.64 246.811C389.065 251.147 385.92 256.091 382.073 260.146C390.87 256.919 411.614 247.869 420.168 251.678C421.14 252.11 422.028 252.824 422.485 253.808C423.539 256.08 422.406 259.143 421.386 261.22C418.849 266.387 414.421 271.017 410.677 275.362C394.262 294.414 367.712 318.673 343.969 327.597C344.106 322.825 343.667 318.006 343.711 313.222L344.025 265.586L344.005 105.302Z"/>
	<path fill="#50B627" transform="scale(0.984375 0.984375)" d="M421.057 761.074C426.544 753.738 432.202 747.402 441.914 746.182C447.301 745.504 452.927 746.227 457.297 749.662C464.53 755.348 466.219 765.223 468.042 773.677C473.904 763.446 479.094 752.226 491.471 748.848C497.997 747.066 505.281 747.556 511.188 751.016C515.585 753.592 520.111 758.763 521.23 763.862C521.269 764.04 521.281 764.223 521.307 764.403C526.356 757.422 530.543 752.555 538.511 748.855C534.538 755.22 527.303 761.045 521.931 766.299C499.05 793.956 484.991 825.591 479.072 860.952C477.676 869.295 476.341 877.688 476.389 886.166C473.098 888.202 469.734 890.172 466.644 892.507C462.417 898.268 457.722 903.483 452.962 908.799C450.719 911.305 447.973 913.862 446.152 916.682L440.554 916.562C439.229 915.421 437.46 914.647 435.916 913.821C412.141 908.375 387.889 904.455 366.637 891.456C362.462 888.903 358.49 885.834 354.531 882.954C354.949 880.735 353.888 879.055 353.043 877.001C353.113 876.236 353.093 875.478 353.097 874.709C353.136 867.526 354.007 860.353 359.547 855.124C366.964 848.123 378.736 848.881 388.177 848.991C379.734 840.277 367.316 829.356 366.787 816.369C366.552 810.599 368.992 805.217 372.847 801.014C378.44 794.914 386.802 791.141 395.068 790.915C403.539 790.684 410.842 793.839 416.916 799.572C417.306 787.402 417.545 772.776 421.057 761.074Z"/>
	<path fill="#169023" transform="scale(0.984375 0.984375)" d="M446.449 916.338C446.38 910.902 445.23 905.112 444.578 899.702Q442.923 886.784 443.339 873.767C443.626 866.205 444.743 840.868 450.61 836.73C451.609 836.026 452.462 835.695 453.682 836.04C456.446 836.821 458.981 841.253 460.362 843.637C470.28 860.753 471.748 873.657 466.644 892.507C462.417 898.268 457.722 903.483 452.962 908.799C450.719 911.305 447.973 913.862 446.152 916.682L440.554 916.562C439.229 915.421 437.46 914.647 435.916 913.821C434.535 912.097 432.409 910.844 430.654 909.502C425.146 905.291 419.615 900.861 416.42 894.541Q416.183 894.064 415.97 893.575Q415.758 893.087 415.57 892.588Q415.383 892.09 415.221 891.582Q415.058 891.075 414.922 890.56Q414.786 890.045 414.676 889.523Q414.566 889.002 414.482 888.476Q414.399 887.95 414.342 887.42Q414.285 886.891 414.255 886.359Q414.225 885.827 414.222 885.294Q414.219 884.761 414.243 884.229Q414.267 883.697 414.318 883.167Q414.368 882.636 414.446 882.109Q414.523 881.582 414.628 881.06Q414.732 880.537 414.862 880.021Q414.992 879.504 415.149 878.995Q415.305 878.486 415.487 877.985C416.276 875.851 417.832 874.012 419.991 873.18C421.487 872.604 423.099 872.788 424.522 873.489C434.392 878.352 442.653 905.729 446.449 916.338Z"/>
	<path fill="#8EE058" transform="scale(0.984375 0.984375)" d="M587.923 720.136C605.558 717.057 622.652 715.212 640.595 715.635C652.433 715.914 664.096 717.036 675.993 717.022C676.027 728.404 675.794 739.859 676.523 751.221C671.221 794.398 662.242 818.129 633.07 851.251C628.715 855.092 624.398 859.141 619.717 862.583C592.336 882.71 564.495 887.352 531.692 888.87C519.087 898.972 503.757 906.016 488.737 911.75C484.868 913.227 475.099 915.289 472.377 917.428C463.693 917.864 454.833 917.122 446.152 916.682C447.973 913.862 450.719 911.305 452.962 908.799C457.722 903.483 462.417 898.268 466.644 892.507C469.734 890.172 473.098 888.202 476.389 886.166C476.341 877.688 477.676 869.295 479.072 860.952C484.991 825.591 499.05 793.956 521.931 766.299C527.303 761.045 534.538 755.22 538.511 748.855C545.548 745.564 551.253 739.243 557.806 735.025C567.291 728.919 577.685 724.753 587.923 720.136Z"/>
	<path fill="#443E25" transform="scale(0.984375 0.984375)" d="M476.389 886.166L477.115 885.784C487.888 880.049 497.928 872.361 507.878 865.301Q533.074 847.398 557.811 828.866C566.704 822.217 575.304 815.245 584.453 808.94L583.791 809.014L583.863 809.808C579.749 813.345 575.281 816.328 571.057 819.718C567.072 822.916 563.241 826.571 559.112 829.547C554.545 832.84 549.743 835.775 545.201 839.131C534.525 847.016 524.176 855.354 513.382 863.075C502.38 870.945 491.048 878.378 480.565 886.95C497.599 888.607 514.744 887.334 531.692 888.87C519.087 898.972 503.757 906.016 488.737 911.75C484.868 913.227 475.099 915.289 472.377 917.428C463.693 917.864 454.833 917.122 446.152 916.682C447.973 913.862 450.719 911.305 452.962 908.799C457.722 903.483 462.417 898.268 466.644 892.507C469.734 890.172 473.098 888.202 476.389 886.166Z"/>
	<path fill="#50B627" transform="scale(0.984375 0.984375)" d="M183.16 391.307C185.437 391.311 187.787 391.904 190.05 392.194C205.159 394.131 224.465 397.378 237.867 404.624C256.398 411.512 272.552 423.065 286.256 437.147C289.633 441.206 292.941 445.714 297.06 449.046C302.398 459.191 308.012 468.928 312.02 479.719C315.486 489.052 317.998 508.222 322.534 514.596C321.537 520.754 320.099 530.091 323.732 535.531C323.533 553.475 328.879 572.574 333.076 589.923C334.111 594.202 334.991 600.19 337.071 604.039C336.027 605.249 334.992 606.464 333.889 607.622C333.131 608.433 332.344 609.484 331.458 610.137Q328.701 609.982 325.948 609.767C318.286 609.393 310.623 609.465 302.975 608.753C274.807 606.129 246.756 597.469 222.619 582.527C214.721 577.638 207.594 571.941 199.981 566.669C193.984 562.909 174.779 539.362 169.722 532.26C150.089 504.693 140.207 469.688 140.564 435.907C140.717 421.434 142.771 407.291 145.18 393.053C157.736 391.031 170.508 392.489 183.16 391.307Z"/>
	<path fill="#169023" transform="scale(0.984375 0.984375)" d="M239.597 502.685C229.469 487.098 217.722 472.462 207.47 456.891C205.294 453.585 201.788 449.231 200.615 445.504C203.913 446.794 239.514 493.523 245.362 500.838C248.082 488.17 249.101 473.347 252.801 461.298C252.294 476.099 251.221 491.241 248.906 505.868Q271.366 532.022 292.284 559.426C293.04 551.698 294.174 543.973 295.047 536.252C295.721 530.284 295.854 523.804 297.536 518.044C299.299 522.462 296.585 557.923 296.145 564.792C309.024 578.832 320.462 594.056 333.889 607.622C333.131 608.433 332.344 609.484 331.458 610.137Q328.701 609.982 325.948 609.767L326.161 609.126C323.527 605.616 320.06 602.425 317.076 599.191Q309.971 591.485 303.219 583.467C293.45 580.355 283.14 578.815 273.17 576.442C259.214 573.122 245.108 569.04 231.394 564.794C250.108 565.496 279.782 573.612 298.988 577.77C291.192 568.43 282.27 554.601 272.465 547.525C262.884 540.612 249.628 538.068 238.693 533.897C232.352 531.478 226.231 528.418 219.948 525.843C218.216 525.133 213.843 523.967 212.795 522.672C214.542 522.671 215.785 523.147 217.401 523.779C223.29 526.083 229.494 527.275 235.544 529.079C246.111 532.23 256.544 535.688 267.214 538.504C263.946 533.687 260.322 529.018 256.754 524.418C245.497 509.906 238.437 506.976 221.21 501.195C214.913 499.081 208.309 497.409 202.388 494.365L201.665 493.989C214.369 496.397 227.05 499.561 239.597 502.685Z"/>
</svg>
